<?xml version="1.0" encoding="UTF-8" standalone="no"?><!DOCTYPE svg PUBLIC "-//W3C//DTD SVG 1.1//EN" "http://www.w3.org/Graphics/SVG/1.1/DTD/svg11.dtd"><!-- Generated by graphviz version 2.40.1 (20161225.0304)
 --><!-- Title: H Pages: 1 --><svg xmlns="http://www.w3.org/2000/svg" xmlns:xlink="http://www.w3.org/1999/xlink" width="142pt" height="310pt" viewBox="0.00 0.00 142.36 310.40">
<g id="graph0" class="graph" transform="scale(1 1) rotate(0) translate(4 306.4)">
<title>H</title>
<polygon fill="#ffffff" stroke="transparent" points="-4,4 -4,-306.4 138.357,-306.4 138.357,4 -4,4"/>
<!-- ClosedTerm -->
<g id="node1" class="node">
<title>ClosedTerm</title>
<polygon fill="none" stroke="#000000" points="85.3074,-302.4 -.1026,-302.4 -.1026,-266.4 85.3074,-266.4 85.3074,-302.4"/>
<text text-anchor="middle" x="42.6024" y="-280.2" font-family="Times,serif" font-size="14.00" fill="#000000">ClosedTerm</text>
</g>
<!-- ANFDef -->
<g id="node2" class="node">
<title>ANFDef</title>
<polygon fill="none" stroke="#000000" points="75.08,-213.6 10.1248,-213.6 10.1248,-177.6 75.08,-177.6 75.08,-213.6"/>
<text text-anchor="middle" x="42.6024" y="-191.4" font-family="Times,serif" font-size="14.00" fill="#000000">ANFDef</text>
</g>
<!-- ClosedTerm&#45;&gt;ANFDef -->
<g id="edge1" class="edge">
<title>ClosedTerm-&gt;ANFDef</title>
<path fill="none" stroke="#000000" d="M42.6024,-266.0006C42.6024,-253.8949 42.6024,-237.8076 42.6024,-224.0674"/>
<polygon fill="#000000" stroke="#000000" points="46.1025,-223.672 42.6024,-213.672 39.1025,-223.6721 46.1025,-223.672"/>
<text text-anchor="middle" x="88.4797" y="-235.8" font-family="Times,serif" font-size="14.00" fill="#000000">getCompileData</text>
</g>
<!-- IdrisSTG -->
<g id="node3" class="node">
<title>IdrisSTG</title>
<polygon fill="none" stroke="#000000" points="76.7007,-124.8 8.5041,-124.8 8.5041,-88.8 76.7007,-88.8 76.7007,-124.8"/>
<text text-anchor="middle" x="42.6024" y="-102.6" font-family="Times,serif" font-size="14.00" fill="#000000">IdrisSTG</text>
</g>
<!-- ANFDef&#45;&gt;IdrisSTG -->
<g id="edge2" class="edge">
<title>ANFDef-&gt;IdrisSTG</title>
<path fill="none" stroke="#000000" d="M42.6024,-177.2006C42.6024,-165.0949 42.6024,-149.0076 42.6024,-135.2674"/>
<polygon fill="#000000" stroke="#000000" points="46.1025,-134.872 42.6024,-124.872 39.1025,-134.8721 46.1025,-134.872"/>
<text text-anchor="middle" x="78.3738" y="-147" font-family="Times,serif" font-size="14.00" fill="#000000">compileSTG</text>
</g>
<!-- ExtSTG -->
<g id="node4" class="node">
<title>ExtSTG</title>
<polygon fill="none" stroke="#000000" points="73.4875,-36 11.7173,-36 11.7173,0 73.4875,0 73.4875,-36"/>
<text text-anchor="middle" x="42.6024" y="-13.8" font-family="Times,serif" font-size="14.00" fill="#000000">ExtSTG</text>
</g>
<!-- IdrisSTG&#45;&gt;ExtSTG -->
<g id="edge3" class="edge">
<title>IdrisSTG-&gt;ExtSTG</title>
<path fill="none" stroke="#000000" d="M42.6024,-88.4006C42.6024,-76.2949 42.6024,-60.2076 42.6024,-46.4674"/>
<polygon fill="#000000" stroke="#000000" points="46.1025,-46.072 42.6024,-36.072 39.1025,-46.0721 46.1025,-46.072"/>
<text text-anchor="middle" x="55.0393" y="-58.2" font-family="Times,serif" font-size="14.00" fill="#000000">save</text>
</g>
</g>
</svg>